<svg xmlns="http://www.w3.org/2000/svg" xmlns:xlink="http://www.w3.org/1999/xlink" width="95" zoomAndPan="magnify" viewBox="0 0 71.25 71.25" height="95" preserveAspectRatio="xMidYMid meet" version="1.0"><path fill="#3871c1" d="M 45.90625 33.34375 C 45.0625 32.8125 46.984375 26.917969 37.785156 22.234375 C 37.785156 22.234375 34.613281 16.304688 29.765625 16.570312 C 29.765625 16.570312 33.378906 18.734375 32.003906 21.269531 C 32.003906 21.269531 16.6875 20.96875 15.035156 38.511719 C 15.035156 38.511719 7.039062 38.96875 7.898438 48.0625 C 7.898438 48.0625 7.867188 43.644531 11.066406 44.214844 C 14.03125 44.742188 15.726562 43.597656 15.726562 43.597656 C 15.726562 43.597656 16.257812 45.886719 19.316406 45.886719 C 21.828125 45.886719 22.523438 49.097656 22.523438 49.097656 C 22.523438 49.097656 23.09375 41.65625 17.542969 39.152344 C 17.542969 39.152344 19.515625 29.441406 29.035156 30.527344 C 29.035156 30.527344 30.988281 32.664062 26.953125 35.332031 C 26.953125 35.332031 30.003906 35.882812 34.441406 31.367188 C 34.441406 31.367188 49.402344 39.570312 50.386719 38.058594 C 50.863281 37.324219 47.59375 34.414062 45.90625 33.34375 " fill-opacity="1" fill-rule="nonzero"/><path fill="#00c2cb" d="M 33.792969 9.652344 C 24.519531 11.324219 17.253906 17.699219 14 25.902344 C 17.207031 18.992188 23.589844 13.710938 31.617188 12.257812 C 44.730469 9.898438 57.273438 18.6875 59.621094 31.886719 C 61.96875 45.089844 53.238281 57.710938 40.121094 60.070312 C 32.09375 61.515625 24.285156 58.792969 18.894531 53.429688 C 24.773438 59.984375 33.789062 63.433594 43.0625 61.761719 C 57.359375 59.183594 66.871094 45.433594 64.308594 31.042969 C 61.753906 16.652344 48.089844 7.074219 33.792969 9.652344 " fill-opacity="1" fill-rule="nonzero"/><path fill="#51ade5" d="M 21.414062 53.40625 C 21.414062 53.40625 25.777344 47.25 35.035156 51.992188 C 44.285156 56.738281 52.320312 49.5625 53.367188 42.695312 C 53.367188 42.695312 53.683594 55.304688 41.375 56.796875 C 32.089844 57.921875 29.132812 47.855469 21.414062 53.40625 " fill-opacity="1" fill-rule="nonzero"/><path fill="#51ade5" d="M 35.902344 49.488281 C 41.1875 52.195312 46.066406 51.027344 49.476562 48.242188 C 46.1875 50.292969 41.878906 50.890625 37.261719 48.523438 C 30.5 45.058594 26.347656 47.410156 24.597656 48.925781 C 26.773438 47.660156 30.511719 46.722656 35.902344 49.488281 " fill-opacity="1" fill-rule="nonzero"/></svg>